<svg width="2940" height="733" viewBox="0 0 2940 733" fill="none" xmlns="http://www.w3.org/2000/svg">
<path d="M487.75 164.25H491C492 164.25 492.583 164.333 492.75 164.5C493.083 164.667 493.417 164.833 493.75 165C494.25 165 494.667 165.167 495 165.5C495.833 166.167 497 166.917 498.5 167.75C500.5 169.25 501.5 171 501.5 173C501.5 175 499.5 179.167 495.5 185.5C491.667 191.667 481.667 207.167 465.5 232C428.167 289.167 394.75 342.167 365.25 391C314.25 475.833 288.5 518.5 288 519C287.5 519.5 287.167 520 287 520.5C286.833 521.5 286.167 522 285 522L281.5 521.25L274.75 523L270.75 522.25L266.5 523H265L251 525C242.667 525 238.5 522.167 238.5 516.5C238.5 514.167 239.25 511.25 240.75 507.75C245.917 495.583 271.917 451.333 318.75 375C287.917 375.833 257.5 376.25 227.5 376.25L173.75 376C164.917 390.167 152.833 410.25 137.5 436.25C104.333 492.917 86.6667 521.5 84.5 522C82.3333 522.667 80.5833 523 79.25 523C77.9167 523 76.6667 522.25 75.5 520.75C74.3333 519.083 73.5 518.25 73 518.25C72.6667 518.25 71.8333 518.583 70.5 519.25C69.1667 519.917 67.25 520.25 64.75 520.25L59 520L56.75 518.5C56.5833 518.5 56.3333 518.75 56 519.25C55.8333 519.75 55.25 520 54.25 520C47.0833 520 43.5 517 43.5 511C43.5 507 44.9167 501.75 47.75 495.25C50.5833 488.75 54.25 481.667 58.75 474C63.4167 466.333 75.25 448.25 94.25 419.75C113.417 391.083 123 376.667 123 376.5C119.833 376.333 116.167 376.167 112 376C103.5 376 97.5 375.667 94 375C84.5 373.333 78 365.5 74.5 351.5C72.6667 344.667 71.8333 340.167 72 338C72 333.5 73.9167 331.25 77.75 331.25L84.25 333C87.5833 333.167 95.5833 333.583 108.25 334.25C120.917 334.917 130 335.25 135.5 335.25L149.75 334.75C171.417 300.75 197.333 262.333 227.5 219.5C205.5 237.5 181.083 246.5 154.25 246.5C141.583 246.5 130.667 243.5 121.5 237.5C112.333 231.333 107.75 223.583 107.75 214.25C107.75 204.917 111.25 197.583 118.25 192.25C125.25 186.75 131.917 184 138.25 184C144.583 184 147.75 185 147.75 187C147.75 187.667 146.833 188.417 145 189.25C143.333 190.083 142.5 190.917 142.5 191.75C142.5 194.417 145.417 196.833 151.25 199C157.083 201 163.583 202 170.75 202C178.083 202 187.083 199.917 197.75 195.75C208.417 191.417 219.5 185.917 231 179.25C247 169.917 259.667 162.167 269 156C274.333 153.333 279.333 152 284 152C288.667 152 292 152.583 294 153.75C296.167 154.75 297.75 155.833 298.75 157C299.75 158 300.833 159.417 302 161.25C303.167 162.917 304.25 164.25 305.25 165.25C306.417 166.083 307 167.083 307 168.25C307 169.417 306.333 171.25 305 173.75C303.833 176.25 297.5 186.417 286 204.25C274.5 221.917 259.667 244.583 241.5 272.25C223.5 299.75 210.333 320 202 333C246.5 333 294.583 332.167 346.25 330.5C409.083 231.333 442.25 179.333 445.75 174.5C449.25 169.667 452.417 166.5 455.25 165C458.083 163.5 461.583 162.75 465.75 162.75L487.75 164.25ZM590.25 331C602.917 331 609.25 335.333 609.25 344C609.25 348.667 608.167 352.083 606 354.25C603.833 356.417 599.167 363.667 592 376C585 388.167 577.167 403.833 568.5 423C560 442 554.5 458.25 552 471.75C551.5 473.417 551.25 475.75 551.25 478.75C551.25 487.917 553.75 492.5 558.75 492.5C563.75 492.5 569.667 490.167 576.5 485.5C583.333 480.667 589.417 475.583 594.75 470.25C600.083 464.75 605.25 459.167 610.25 453.5C615.417 447.833 618.5 444.583 619.5 443.75C620.5 442.917 622 442.5 624 442.5C627.167 442.5 629.083 444.917 629.75 449.75C630.417 454.583 630.75 459.583 630.75 464.75C630.75 469.917 630.25 473.5 629.25 475.5C624.417 485 613.75 496.417 597.25 509.75C580.917 523.083 566 529.75 552.5 529.75C539.167 529.75 529.333 525.667 523 517.5C516.667 509.333 513.5 500.333 513.5 490.5C513.5 480.5 515.167 471.75 518.5 464.25C504.667 482.25 488.75 497.5 470.75 510C452.917 522.5 438.333 528.75 427 528.75C415.667 528.75 406.417 525.333 399.25 518.5C390.083 510 385.5 498.25 385.5 483.25C385.5 468.083 388.833 452.917 395.5 437.75C402.333 422.417 411.25 408.5 422.25 396C433.25 383.333 445.333 371.833 458.5 361.5C486.167 339.833 511.667 329 535 329C544 329 551.333 330.5 557 333.5C562.667 336.5 566.25 340.25 567.75 344.75C571.75 338.75 575.083 335 577.75 333.5C580.583 331.833 584.75 331 590.25 331ZM557 358.75C528.5 358.75 499 374.583 468.5 406.25C457.667 417.583 447.667 431.167 438.5 447C429.5 462.833 425 473.667 425 479.5C425 485.333 426.667 488.25 430 488.25C434.667 488.25 447.667 479.083 469 460.75C490.333 442.25 504.5 428.667 511.5 420C519.167 410.333 534.333 389.917 557 358.75ZM815.25 145.75C823.25 145.75 830.25 148.167 836.25 153C842.417 157.667 845.5 164.667 845.5 174C845.5 183.333 840.333 198 830 218C819.667 237.833 807.25 258.167 792.75 279C778.25 299.667 761.833 321.667 743.5 345C714.5 382 686.667 415.25 660 444.75C659.833 446.75 659.083 450.5 657.75 456C656.583 461.333 656 466.75 656 472.25C656 477.75 658.5 482.75 663.5 487.25C668.667 491.583 675 493.75 682.5 493.75C690 493.75 698 491.083 706.5 485.75C715.167 480.417 722.667 474.5 729 468C745.667 450.833 756 442.25 760 442.25C764 442.25 766 448.333 766 460.5V465.5C766 472 764.833 476.75 762.5 479.75C748.5 496.917 732.75 509.75 715.25 518.25C697.75 526.583 681.167 530.75 665.5 530.75C649.833 530.75 637.917 526 629.75 516.5C621.583 506.833 617.5 493.667 617.5 477C617.5 444.5 626.167 406.333 643.5 362.5C661 318.5 680.667 281.083 702.5 250.25C751.667 180.583 789.25 145.75 815.25 145.75ZM804 187.25C804 184.75 803.167 183.5 801.5 183.5C795.667 183.5 780.333 200.167 755.5 233.5C730.667 266.833 712.667 293.417 701.5 313.25C690.5 333.083 680.083 358 670.25 388C689.917 364.667 717.083 328.333 751.75 279C786.583 229.5 804 198.917 804 187.25ZM902.5 465.5C911.167 460 916.75 456.25 919.25 454.25C921.75 452.083 924.667 449.583 928 446.75C931.333 443.917 934.083 442.5 936.25 442.5C939.583 442.5 941.25 446.333 941.25 454C941.25 461.5 937.5 469.667 930 478.5C922.667 487.167 913.5 494.583 902.5 500.75C891.5 506.75 879.75 512 867.25 516.5C842.417 525.667 821.25 530.25 803.75 530.25C786.417 530.25 770.75 524.583 756.75 513.25C742.75 501.75 735.75 486.833 735.75 468.5C735.75 450 740.333 431.583 749.5 413.25C758.667 394.75 770.417 378.583 784.75 364.75C799.25 350.75 816 339.417 835 330.75C854.167 322.083 873.083 317.75 891.75 317.75C900.75 317.75 908.833 320.333 916 325.5C923.167 330.667 926.75 337.75 926.75 346.75C926.75 355.75 922.25 366.583 913.25 379.25C904.417 391.75 895.417 398 886.25 398C875.583 398 870.25 392.917 870.25 382.75C870.25 380.083 872.75 375.333 877.75 368.5C882.75 361.667 885.25 357.083 885.25 354.75C885.25 352.25 884.333 351 882.5 351C873.333 351 863.5 354.167 853 360.5C842.5 366.833 832.917 373.5 824.25 380.5C815.75 387.5 807.667 395.333 800 404C783.333 422.833 775 442.417 775 462.75C775 470.917 777.583 478 782.75 484C788.083 489.833 796.917 492.75 809.25 492.75C821.75 492.75 834.25 491.333 846.75 488.5C859.25 485.5 869.5 482.333 877.5 479C885.667 475.5 894 471 902.5 465.5ZM1002.75 604C1001.92 604.833 999.333 609 995 616.5C990.833 624.167 986.333 631.833 981.5 639.5C976.667 647.333 970.667 654.75 963.5 661.75C956.5 668.75 950.583 672.5 945.75 673C941.083 673.667 938.083 674 936.75 674C921.417 674 913.75 666.25 913.75 650.75C913.75 632.583 923.167 611.333 942 587C949.167 577.833 958.167 567.917 969 557.25C979.833 546.75 985.75 540.75 986.75 539.25C987.75 537.917 1000.25 514.583 1024.25 469.25C1008.25 486.75 993.417 501 979.75 512C966.083 522.833 952.917 528.917 940.25 530.25H938.5C932 530.25 925.583 528.083 919.25 523.75C912.917 519.583 909.75 512.167 909.75 501.5C909.75 485.667 914 470.333 922.5 455.5C925.5 450.333 930.667 441.583 938 429.25C945.5 416.917 952.417 405 958.75 393.5C964.75 384.333 970.917 373.667 977.25 361.5C983.583 349.333 988.417 340.667 991.75 335.5C995.083 330.167 998.25 327.5 1001.25 327.5C1004.25 327.5 1008.08 329.417 1012.75 333.25C1017.58 336.917 1020 341.333 1020 346.5C1020 351.667 1009.08 374.083 987.25 413.75C965.417 453.417 954.5 476 954.5 481.5C954.5 482.833 955.167 483.5 956.5 483.5C961 483.5 970.917 477.167 986.25 464.5C1001.75 451.667 1018.83 435.25 1037.5 415.25C1058.33 393.083 1074.67 372.833 1086.5 354.5C1088 352.167 1089.17 350.417 1090 349.25C1091 347.917 1092.17 346.25 1093.5 344.25C1095 342.083 1096.17 340.417 1097 339.25C1098 338.083 1099.08 336.75 1100.25 335.25C1101.58 333.583 1102.75 332.333 1103.75 331.5C1104.75 330.667 1105.83 329.833 1107 329C1108.83 327.333 1110.83 326.5 1113 326.5C1115.33 326.5 1118.75 327 1123.25 328C1127.92 329 1130.67 330.083 1131.5 331.25C1132.5 332.417 1133.5 333.5 1134.5 334.5C1136.17 336.333 1137 338.083 1137 339.75C1137 341.25 1136.33 343.333 1135 346C1133.67 348.5 1125.92 361.667 1111.75 385.5C1070.08 455.833 1041.42 507.167 1025.75 539.5C1051.08 518.167 1086.75 486.583 1132.75 444.75C1134.58 443.25 1136.42 442.5 1138.25 442.5C1143.42 442.5 1146 450.417 1146 466.25C1146 470.917 1145.17 474 1143.5 475.5C1093.67 513.833 1046.75 556.667 1002.75 604ZM1296.75 330.5C1301.75 330.5 1306.83 332.75 1312 337.25C1317.33 341.75 1320 348.667 1320 358C1320 367.167 1316.75 379.167 1310.25 394C1303.75 408.667 1294.83 423.667 1283.5 439C1272.17 454.167 1259.67 468.5 1246 482C1232.5 495.333 1217.83 506.333 1202 515C1186.33 523.5 1172.08 527.75 1159.25 527.75C1146.42 527.75 1136.08 523.75 1128.25 515.75C1120.58 507.583 1116.75 496.333 1116.75 482C1116.75 467.5 1120.25 451.5 1127.25 434C1134.42 416.5 1143.58 401.083 1154.75 387.75C1165.92 374.25 1178 362.167 1191 351.5C1218.17 329.667 1242 318.75 1262.5 318.75C1271.67 318.75 1278.58 321 1283.25 325.5C1284.92 327 1285.75 328.333 1285.75 329.5V331C1288.08 330.667 1291.75 330.5 1296.75 330.5ZM1271.5 363.75H1269.75C1263.92 363.75 1261 359.5 1261 351C1248.83 355 1236.08 362 1222.75 372C1209.42 382 1197.5 393.833 1187 407.5C1165.67 434.833 1154.83 457.917 1154.5 476.75C1154.5 486.083 1157.92 490.75 1164.75 490.75C1171.58 490.75 1181.75 486.25 1195.25 477.25C1208.75 468.25 1222.08 455.417 1235.25 438.75C1248.58 422.083 1258.5 407.667 1265 395.5C1271.67 383.167 1275 374.833 1275 370.5C1275 366 1273.83 363.75 1271.5 363.75ZM1445 482.5C1445 489.833 1450 493.5 1460 493.5C1465.33 493.5 1472 490.833 1480 485.5C1488.17 480.167 1495.5 474.333 1502 468C1519.33 450.833 1529.17 442.25 1531.5 442.25C1535.83 442.25 1538 448.5 1538 461C1538 473.5 1534.08 482.083 1526.25 486.75C1502.42 508.25 1484 521.333 1471 526C1463.67 528.5 1455.58 529.667 1446.75 529.5C1437.92 529.333 1429.17 525.5 1420.5 518C1411.83 510.5 1407.5 501.417 1407.5 490.75C1407.5 479.917 1410.33 467.667 1416 454C1421.67 440.333 1427.42 428.667 1433.25 419C1439.25 409.167 1446.58 397.833 1455.25 385C1463.92 372 1468.5 363.917 1469 360.75L1468.5 360.25C1463 360.75 1449.33 371.583 1427.5 392.75C1405.83 413.917 1387.92 432.333 1373.75 448C1359.58 463.667 1342.67 484.583 1323 510.75C1317.5 517.917 1313 521.5 1309.5 521.5C1306 521.5 1301.33 520.417 1295.5 518.25C1289.5 515.917 1285.83 514.25 1284.5 513.25C1283.17 512.25 1282.5 510.75 1282.5 508.75C1282.5 506.75 1283.08 504.333 1284.25 501.5C1285.42 498.5 1286.58 496.083 1287.75 494.25C1288.75 492.25 1290.5 489.25 1293 485.25C1295.5 481.25 1300.42 472.833 1307.75 460C1315.25 447 1326.67 427.667 1342 402C1357.33 376.333 1366.5 360.833 1369.5 355.5C1375.83 344.5 1381 336.5 1385 331.5C1392.5 322 1405.17 317.25 1423 317.25C1427 317.25 1429 319.75 1429 324.75C1429 332.583 1421.75 347.333 1407.25 369L1396.75 384.75C1425.58 352.75 1449.92 332.5 1469.75 324C1479.42 319.833 1488.08 317.75 1495.75 317.75C1503.58 317.75 1509.75 319.833 1514.25 324C1518.92 328.167 1521.25 332.833 1521.25 338C1521.25 343 1519.5 349.083 1516 356.25C1512.5 363.25 1508.92 369.583 1505.25 375.25C1501.75 380.75 1497.08 387.75 1491.25 396.25C1485.42 404.75 1482.25 409.417 1481.75 410.25C1481.25 410.917 1479.92 412.917 1477.75 416.25C1475.75 419.417 1474.25 421.75 1473.25 423.25C1472.25 424.75 1470.58 427.417 1468.25 431.25C1465.92 434.917 1464 438 1462.5 440.5C1461.17 443 1459.42 446.083 1457.25 449.75C1455.25 453.417 1453.58 456.583 1452.25 459.25C1451.08 461.917 1449.83 464.833 1448.5 468C1446.17 473.833 1445 478.667 1445 482.5ZM1999.75 382.75C2004.25 382.75 2006.5 388.667 2006.5 400.5C2006.5 412.333 2005.75 420.25 2004.25 424.25C1999.25 437.083 1987.58 451.5 1969.25 467.5C1951.08 483.333 1931.08 496.833 1909.25 508C1887.58 519 1869.75 524.5 1855.75 524.5C1849.08 524.5 1843.42 521.917 1838.75 516.75C1834.25 511.583 1832 504.833 1832 496.5C1832 481.667 1840.5 459 1857.5 428.5C1874.5 398 1895.08 366.167 1919.25 333C1879.08 379.667 1850.58 411.167 1833.75 427.5C1817.08 443.833 1802.17 457.833 1789 469.5C1775.83 481 1764 490.25 1753.5 497.25C1728.5 513.75 1708.67 522 1694 522C1679.33 522 1668.92 518 1662.75 510C1656.58 501.833 1653.5 492.833 1653.5 483C1653.5 454.167 1670.33 413.667 1704 361.5C1737.83 309.167 1768.92 266.417 1797.25 233.25C1773.25 254.417 1756.67 265 1747.5 265C1738.5 265 1731.75 262.25 1727.25 256.75C1722.75 251.083 1720.5 244.75 1720.5 237.75C1720.5 230.583 1723.83 223.917 1730.5 217.75C1737.17 211.417 1742 208.25 1745 208.25C1748.17 208.25 1749.75 208.5 1749.75 209C1749.75 209.5 1748.5 211.333 1746 214.5C1743.5 217.5 1742.25 219.583 1742.25 220.75C1742.25 221.917 1743.33 222.5 1745.5 222.5C1752 222.5 1766.17 215.917 1788 202.75C1809.83 189.583 1828.5 176.75 1844 164.25C1848.17 160.75 1852.92 159 1858.25 159C1863.75 159 1869 160.333 1874 163C1874.33 162.167 1875.75 162.333 1878.25 163.5C1880.75 164.667 1883.25 166.5 1885.75 169C1888.25 171.5 1889.5 173.833 1889.5 176C1889.5 178.167 1888.83 180.167 1887.5 182C1818.17 271.667 1774.58 330.083 1756.75 357.25C1720.58 412.417 1702.5 448.25 1702.5 464.75C1702.5 470.583 1704.92 473.5 1709.75 473.5C1714.75 473.5 1728.67 464.167 1751.5 445.5C1814.17 394.5 1902 304.5 2015 175.5C2019.5 170.333 2023.75 167.917 2027.75 168.25H2030C2030.67 168.25 2032.5 168 2035.5 167.5C2038.67 166.833 2043.75 166.5 2050.75 166.5C2067.42 166.5 2075.75 169.583 2075.75 175.75C2075.75 178.417 2073.25 183.083 2068.25 189.75C2063.42 196.417 2053.25 210.75 2037.75 232.75C2022.25 254.75 2002.92 282.667 1979.75 316.5C1956.75 350.333 1936.83 381.417 1920 409.75C1903.33 438.083 1895 456.083 1895 463.75C1895 463.917 1895.25 464 1895.75 464C1896.42 464 1899.08 462.833 1903.75 460.5C1918.08 453 1934.83 441.083 1954 424.75C1973.33 408.417 1985.5 397.333 1990.5 391.5C1995.67 385.667 1998.75 382.75 1999.75 382.75ZM2239.75 158.5L2251.5 158C2255.83 158 2258 159.667 2258 163C2258 164 2257.83 164.75 2257.5 165.25C2177.83 282.417 2103.42 397.25 2034.25 509.75C2030.58 515.75 2027.33 519.167 2024.5 520C2024.33 520 2023.5 520.333 2022 521C2013.67 524.167 2007.83 525.75 2004.5 525.75C2001.17 525.75 1999.33 525.833 1999 526C1997.5 527.667 1995.67 528.5 1993.5 528.5C1991.5 528.5 1990.17 528.417 1989.5 528.25C1988.83 528.25 1986.92 527.583 1983.75 526.25C1980.58 525.083 1979 524.167 1979 523.5C1979 515.333 1979.33 510.417 1980 508.75C1983.5 496.917 2002.75 463.583 2037.75 408.75C2072.75 353.75 2108.33 300.167 2144.5 248C2180.83 195.667 2202.83 166.5 2210.5 160.5C2212.83 158.667 2215.92 157.75 2219.75 157.75L2239.75 158.5ZM2663 159L2672 161.5C2693.17 164.667 2703.75 171 2703.75 180.5C2703.75 183.167 2702.75 185.417 2700.75 187.25C2678.25 207.417 2648.33 229.167 2611 252.5C2554 288 2489.33 322.333 2417 355.5C2440.67 369 2472.75 391.417 2513.25 422.75C2567.58 462.917 2601 483 2613.5 483C2617.83 483 2621.5 481.833 2624.5 479.5C2627.67 477 2629.42 475.75 2629.75 475.75C2632.58 475.75 2634 477.083 2634 479.75C2634 482.083 2631.17 488.75 2625.5 499.75C2620 510.75 2615.25 518 2611.25 521.5C2607.42 525 2601.25 526.75 2592.75 526.75C2584.25 526.75 2572.92 522.583 2558.75 514.25C2544.58 505.917 2529.08 495.5 2512.25 483C2495.58 470.333 2478.92 457.5 2462.25 444.5C2420.08 412 2391.67 392.75 2377 386.75C2325.67 467.75 2299.25 509.667 2297.75 512.5C2296.42 515.333 2294.58 517.667 2292.25 519.5C2290.08 521.167 2288.67 522 2288 522L2277.25 523.5L2268.5 523C2266.17 523 2264.5 523.333 2263.5 524C2262.5 524.833 2261.42 525.417 2260.25 525.75C2259.08 526.083 2258.08 526.583 2257.25 527.25C2256.42 528.083 2255.08 528.5 2253.25 528.5C2251.58 528.5 2249.17 527.083 2246 524.25C2243 521.583 2241.5 519.25 2241.5 517.25C2241.5 515.25 2242.67 511.75 2245 506.75C2247.5 501.75 2278.25 455.333 2337.25 367.5H2332.5C2321.33 367.5 2315.75 364.5 2315.75 358.5C2315.75 352.333 2318.5 346.25 2324 340.25C2329.67 334.083 2335.33 331 2341 331C2346.67 331 2352.92 331.5 2359.75 332.5C2391.25 286 2415.5 249.5 2432.5 223C2413.17 241.167 2394.83 250.25 2377.5 250.25C2369.17 250.25 2362.58 247.417 2357.75 241.75C2352.92 235.917 2350.5 229.333 2350.5 222C2350.5 214.667 2352.33 208.667 2356 204C2359.83 199.333 2363.5 196.083 2367 194.25C2370.5 192.417 2372.92 191.5 2374.25 191.5C2375.58 191.5 2376.25 192.167 2376.25 193.5L2374.25 199.5C2374.25 201.833 2377.83 203 2385 203C2392.17 203 2402.17 199.083 2415 191.25C2427.83 183.25 2440.42 175.333 2452.75 167.5C2465.08 159.5 2474.33 155.5 2480.5 155.5C2486.67 155.5 2490.67 156.25 2492.5 157.75C2494.5 159.083 2496.25 160 2497.75 160.5C2499.42 160.833 2500.75 161.417 2501.75 162.25C2502.75 163.083 2503.58 164.167 2504.25 165.5C2504.92 166.667 2506.17 168 2508 169.5C2509.83 171 2510.75 173 2510.75 175.5C2510.75 178 2510.08 180.333 2508.75 182.5C2487.58 214.5 2461.58 254.833 2430.75 303.5C2472.08 282 2519.33 254.5 2572.5 221C2625.67 187.333 2654.42 167.5 2658.75 161.5C2659.75 159.833 2661.17 159 2663 159ZM2779.75 246.5C2779.75 256 2775.33 265.583 2766.5 275.25C2757.67 284.75 2748.42 289.5 2738.75 289.5C2729.25 289.5 2724.5 284.5 2724.5 274.5C2724.5 264.5 2728.67 255 2737 246C2745.5 236.833 2754.83 232.25 2765 232.25C2769.5 232.25 2773.08 233.5 2775.75 236C2778.42 238.5 2779.75 242 2779.75 246.5ZM2739.25 464.75C2739.25 469.75 2738.75 473.333 2737.75 475.5C2729.58 492.167 2716.58 505.667 2698.75 516C2680.92 526.167 2665.42 531.25 2652.25 531.25C2639.08 531.25 2627.75 526.833 2618.25 518C2608.75 509.167 2604 500.167 2604 491C2604 481.833 2608.58 468.5 2617.75 451C2626.92 433.5 2636.08 417.333 2645.25 402.5C2654.42 387.667 2659 379.667 2659 378.5C2659 377.167 2657.25 374.667 2653.75 371C2650.42 367.333 2648.75 364.667 2648.75 363C2648.75 361.167 2652.17 356.583 2659 349.25C2666 341.75 2674.42 334.417 2684.25 327.25C2694.25 319.917 2701.83 316.25 2707 316.25C2712.33 316.25 2717.08 318.583 2721.25 323.25C2725.42 327.917 2727.5 332.167 2727.5 336C2727.5 339.833 2707.67 375.917 2668 444.25C2667.5 445.25 2666.08 447.5 2663.75 451C2661.58 454.333 2659.83 457.167 2658.5 459.5C2657.33 461.667 2655.92 464.333 2654.25 467.5C2650.92 474.167 2649.25 479.75 2649.25 484.25C2649.25 489.917 2653.08 492.75 2660.75 492.75C2668.42 492.75 2676.33 490.167 2684.5 485C2692.83 479.667 2700 473.833 2706 467.5C2721.67 450.667 2730.58 442.25 2732.75 442.25C2737.08 442.25 2739.25 449.75 2739.25 464.75ZM2893 199L2903.25 201.5C2904.75 201.5 2906.08 202.25 2907.25 203.75C2908.42 205.25 2909 206.667 2909 208C2909 209.333 2907.25 212.917 2903.75 218.75C2900.25 224.583 2896.08 231.25 2891.25 238.75C2886.58 246.083 2884.08 250.083 2883.75 250.75C2896.75 249.75 2905.92 249.25 2911.25 249.25C2916.75 249.25 2920.5 249.667 2922.5 250.5C2924.5 251.167 2926.75 253.25 2929.25 256.75C2931.92 260.083 2934.33 262.667 2936.5 264.5C2938.67 266.167 2939.75 268.75 2939.75 272.25C2939.75 275.75 2937.58 278.75 2933.25 281.25C2929.08 283.583 2924.58 285 2919.75 285.5C2881.08 289.333 2859.75 291.333 2855.75 291.5C2842.25 312.167 2823.33 344.417 2799 388.25C2774.83 431.917 2762 459.25 2760.5 470.25C2759.83 475.25 2759.5 479.333 2759.5 482.5C2759.5 489 2762.92 492.25 2769.75 492.25C2776.58 492.25 2784.17 489.667 2792.5 484.5C2800.83 479.167 2808.5 473.417 2815.5 467.25C2834.17 450.583 2844.17 442.25 2845.5 442.25C2849.83 442.25 2852 449.75 2852 464.75C2852 472.917 2848.25 480.25 2840.75 486.75C2823.92 501.25 2809.75 512.167 2798.25 519.5C2786.75 526.833 2775.25 530.5 2763.75 530.5C2761.25 530.5 2758.92 530.25 2756.75 529.75C2743.42 527.25 2733.58 522.417 2727.25 515.25C2721.08 507.917 2718 498.083 2718 485.75C2718.17 473.417 2721.83 458.5 2729 441C2736.33 423.333 2745.5 404.583 2756.5 384.75C2774.5 352.417 2792.5 322.083 2810.5 293.75L2801 295C2781.67 297.167 2770.42 298.25 2767.25 298.25H2765C2760.17 298.25 2755.5 297.333 2751 295.5C2746.5 293.5 2744.25 291.083 2744.25 288.25C2744.25 285.417 2745.42 282.667 2747.75 280C2750.25 277.333 2751.75 275.25 2752.25 273.75C2753.42 270.083 2757.75 266 2765.25 261.5C2772.92 257 2778.67 254.667 2782.5 254.5C2786.33 254.167 2790 253.917 2793.5 253.75C2797.17 253.583 2801.17 253.417 2805.5 253.25C2810 253.083 2813.42 252.917 2815.75 252.75L2838.25 251.75C2852.25 230.75 2861.83 217.25 2867 211.25C2872.33 205.25 2875.42 202 2876.25 201.5C2877.08 200.833 2878.75 200.5 2881.25 200.5L2893 199Z" fill="#FF4291"/>
<path d="M2498.95 680.352L2517.79 621.922H2531.08L2503.8 698H2493.88L2466.32 621.922H2479.61L2498.95 680.352ZM2536.28 691.18C2536.28 688.93 2536.94 687.055 2538.25 685.555C2539.61 684.055 2541.62 683.305 2544.3 683.305C2546.97 683.305 2548.98 684.055 2550.34 685.555C2551.75 687.055 2552.45 688.93 2552.45 691.18C2552.45 693.336 2551.75 695.141 2550.34 696.594C2548.98 698.047 2546.97 698.773 2544.3 698.773C2541.62 698.773 2539.61 698.047 2538.25 696.594C2536.94 695.141 2536.28 693.336 2536.28 691.18ZM2615.38 698H2602.3V611.305L2576.08 620.938V609.125L2613.34 595.133H2615.38V698ZM2655.11 691.18C2655.11 688.93 2655.77 687.055 2657.08 685.555C2658.44 684.055 2660.45 683.305 2663.12 683.305C2665.8 683.305 2667.81 684.055 2669.17 685.555C2670.58 687.055 2671.28 688.93 2671.28 691.18C2671.28 693.336 2670.58 695.141 2669.17 696.594C2667.81 698.047 2665.8 698.773 2663.12 698.773C2660.45 698.773 2658.44 698.047 2657.08 696.594C2655.77 695.141 2655.11 693.336 2655.11 691.18ZM2755.66 654.336C2755.66 669.57 2753.05 680.891 2747.85 688.297C2742.65 695.703 2734.52 699.406 2723.45 699.406C2712.53 699.406 2704.45 695.797 2699.2 688.578C2693.95 681.312 2691.23 670.484 2691.04 656.094V638.727C2691.04 623.68 2693.64 612.5 2698.84 605.188C2704.05 597.875 2712.2 594.219 2723.31 594.219C2734.33 594.219 2742.44 597.758 2747.64 604.836C2752.84 611.867 2755.52 622.742 2755.66 637.461V654.336ZM2742.65 636.547C2742.65 625.531 2741.1 617.516 2738.01 612.5C2734.91 607.438 2730.02 604.906 2723.31 604.906C2716.66 604.906 2711.8 607.414 2708.76 612.43C2705.71 617.445 2704.14 625.156 2704.05 635.562V656.375C2704.05 667.438 2705.64 675.617 2708.83 680.914C2712.06 686.164 2716.94 688.789 2723.45 688.789C2729.88 688.789 2734.63 686.305 2737.73 681.336C2740.87 676.367 2742.51 668.539 2742.65 657.852V636.547ZM2773.94 691.18C2773.94 688.93 2774.59 687.055 2775.91 685.555C2777.27 684.055 2779.28 683.305 2781.95 683.305C2784.62 683.305 2786.64 684.055 2788 685.555C2789.41 687.055 2790.11 688.93 2790.11 691.18C2790.11 693.336 2789.41 695.141 2788 696.594C2786.64 698.047 2784.62 698.773 2781.95 698.773C2779.28 698.773 2777.27 698.047 2775.91 696.594C2774.59 695.141 2773.94 693.336 2773.94 691.18ZM2853.04 698H2839.96V611.305L2813.73 620.938V609.125L2851 595.133H2853.04V698Z" fill="#AFAFAF"/>
</svg>
